# xmcd CD database file
#
# Track frame offsets:
#	150
#	21050
#	32852
#	45607
#	47590
#	61047
#	83907
#	97797
#	102640
#	109590
#	128040
#	141100
#	161172
#
# Disc length: 2291 seconds
#
# Revision: 0
# Processed by: cddbd v1.4PL0 Copyright (c) Steve Scherf et al.
# Submitted via: CDex 1.40Beta9
#
DISCID=a208f10d
DTITLE=Tendrils - Soaking Red
DYEAR=1998
DGENRE=Blues
TTITLE0=Soaking Red
TTITLE1=Goat Curry
TTITLE2=The Prune In Heat
TTITLE3=Gulp
TTITLE4=All Stunk Up
TTITLE5=Hands Are Tied
TTITLE6=Raw Feeling
TTITLE7=Easter Mongrel
TTITLE8=The Time It Is Come
TTITLE9=Glass Antenny
TTITLE10=Whittling
TTITLE11=Do What You Have To
TTITLE12=Wednesday the 22nd
EXTD=YEAR: 1998 ID3G: 0
EXTT0=
EXTT1=
EXTT2=
EXTT3=
EXTT4=
EXTT5=
EXTT6=
EXTT7=
EXTT8=
EXTT9=
EXTT10=
EXTT11=
EXTT12=
PLAYORDER=
